<?xml version="1.0" encoding="utf-8"?>
<!-- Generator: Adobe Illustrator 21.0.0, SVG Export Plug-In . SVG Version: 6.00 Build 0)  -->
<svg version="1.1" id="Layer_1" xmlns="http://www.w3.org/2000/svg" xmlns:xlink="http://www.w3.org/1999/xlink" x="0px" y="0px"
	 viewBox="0 0 512 512" style="enable-background:new 0 0 512 512;" xml:space="preserve">
<g>
	<path d="M449.3,414.7l-393-393c-6.6-6.6-17.4-6.7-24.1-0.1l12,12.3l-12-12.1c-4.3,4.3-8.1,9-11.3,14.1c-4.7,7.6-8.1,15.9-10.3,24.6
		c-2.2,8.7-3.2,17.7-3.2,26.9c0,11.2,1.5,22.6,4.2,34.1c4.1,17.2,11.2,34.6,20.6,51.2c9.5,16.6,21.5,32.5,35.7,46.7l91.1,91.1
		c6.5,6.5,14.2,11.6,22.5,15c8.3,3.4,17.2,5.2,26.2,5.2c5.8,0,11.6-0.7,17.4-2.2c1.4-0.4,2.9-0.6,4.3-0.6c4.2,0,8.4,1.6,11.6,4.5
		l12.2,11.2c3.1,3.2,4.9,7.5,4.9,11.9v0.1v5.8c0,13.4,5.3,26.3,14.7,35.9l96,97.7l0.1,0.1c5.5,5.5,12,9.7,18.8,12.5
		c6.9,2.8,14.1,4.2,21.4,4.2s14.5-1.4,21.4-4.2c6.9-2.8,13.3-7,18.8-12.5s9.7-12,12.5-18.8c2.8-6.9,4.2-14.1,4.2-21.4
		s-1.4-14.5-4.2-21.4C459,426.6,454.8,420.2,449.3,414.7z M430.2,463.4c-1.1,2.7-2.7,5.2-5,7.5c-2.3,2.2-4.8,3.9-7.5,5
		c-2.7,1.1-5.6,1.7-8.6,1.7c-2.9,0-5.8-0.6-8.6-1.7c-2.7-1.1-5.2-2.7-7.5-5l-95.9-97.6c-3.1-3.2-4.9-7.5-4.9-12v-5.9v-0.1h0
		c0-13.7-5.5-26.7-15.2-36.3l-0.4-0.4l-12.4-11.4c-9.6-8.8-22-13.6-34.7-13.6c-4.3,0-8.7,0.5-13,1.7c-2.9,0.8-5.8,1.1-8.8,1.1
		c-4.5,0-9-0.9-13.2-2.6c-4.2-1.7-8-4.2-11.3-7.5l-91.1-91.1c-16-16-28.8-34.7-37.4-53.6c-4.3-9.5-7.6-18.9-9.8-28.1
		s-3.3-18-3.3-26.2c0-9,1.3-17,3.8-23.9c0.4-1.1,0.8-2.1,1.2-3.1l378.6,378.6c2.2,2.3,3.9,4.8,5,7.5c1.1,2.7,1.7,5.6,1.7,8.5
		C431.9,457.8,431.3,460.7,430.2,463.4z"/>
	<path d="M302.1,199.8l12.1-12.1c6.4-6.4,9.9-15,10-23.9l0,0c0,0,0-0.1,0-0.2v-15.9c0-13.6,5.4-26.6,15-36.2l82.4-82.4
		c6.7-6.7,6.7-17.5,0-24.1c-6.6-6.7-17.4-6.7-24.1,0l-82.4,82.4c-16,16-25,37.7-25,60.3v15.7v0.2L278,175.7
		c-6.7,6.7-6.7,17.5,0,24.1C284.7,206.5,295.5,206.5,302.1,199.8z"/>
	<path d="M506.8,90.3c-6.7-6.7-17.5-6.7-24.1,0l-82.4,82.4c-9.6,9.6-22.6,15-36.2,15h-15.7h-0.2c-0.1,0-0.1,0-0.2,0l0,0
		c-9,0.1-17.5,3.6-23.9,10L312,209.8c-6.7,6.7-6.7,17.5,0,24.1c6.9,6.7,17.7,6.7,24.3,0l12.1-12.1v0l0,0v0h0.1v0h15.6
		c22.6,0,44.3-9,60.3-25l82.4-82.4C513.5,107.7,513.5,96.9,506.8,90.3z"/>
	<path d="M354.9,157.1c6.7,6.7,17.5,6.7,24.1,0l85.3-85.3c6.7-6.7,6.7-17.5,0-24.1c-6.6-6.7-17.4-6.7-24.1,0L354.9,133
		C348.2,139.7,348.2,150.5,354.9,157.1z"/>
	<path d="M184.2,363.4l-106.4,107c-2.5,2.5-5.4,4.4-8.5,5.6c-3.1,1.2-6.4,1.9-9.6,1.9c-3.3,0-6.6-0.6-9.6-1.9
		c-3.1-1.2-5.9-3.1-8.5-5.6c-2.5-2.5-4.4-5.4-5.6-8.5c-1.2-3.1-1.9-6.4-1.9-9.6c0-3.3,0.6-6.6,1.9-9.6c1.2-3.1,3.1-5.9,5.6-8.5
		l89.9-89.3c6.7-6.6,6.7-17.4,0.1-24.1c-6.6-6.7-17.4-6.7-24.1-0.1l-90,89.3c-5.8,5.8-10.2,12.6-13.1,19.8C1.5,437,0,444.6,0,452.3
		c0,7.6,1.5,15.3,4.4,22.5c2.9,7.2,7.3,14,13.1,19.8s12.6,10.2,19.8,13.1c7.2,2.9,14.8,4.4,22.5,4.4c7.6,0,15.3-1.5,22.5-4.4
		c7.2-2.9,14-7.3,19.8-13.1l106.4-107c6.6-6.7,6.6-17.5-0.1-24.1C201.6,356.7,190.8,356.8,184.2,363.4z"/>
</g>
</svg>
